<?xml version="1.0" encoding="UTF-8"?>
<svg xmlns="http://www.w3.org/2000/svg" xmlns:xlink="http://www.w3.org/1999/xlink" width="64px" height="64px" viewBox="0 0 64 64">
    
    <title>sg-logo-footer</title>
    <desc>Created with Sketch.</desc>
    <g id="Page-1" stroke="none" stroke-width="1" fill="none" fill-rule="evenodd">
        <g id="sg-logo-footer" fill="#FFFFFF" fill-rule="nonzero">
            <path d="M31.809,0 C49.3093897,0.0986871868 63.4417002,14.3119762 63.4417002,31.8105441 C63.4417002,49.3091121 49.3072962,63.521468 31.809,63.619 C14.3107083,63.5208887 0.177352881,49.3080668 0.177352881,31.8095 C0.177352881,14.3109332 14.3107083,0.0981112791 31.809,0 Z M31.8074,3.387 C16.1326106,3.387 3.42625,16.0937356 3.42625,31.768025 C3.42625,47.4423144 16.1328606,60.1488 31.80715,60.1488 C47.4814394,60.1488 60.18805,47.4423144 60.18805,31.768025 C60.18805,16.0937356 47.4816894,3.387 31.8074,3.387 L31.8074,3.387 Z" id="Shape"/>
            <path d="M22.4042,39.1039 C20.1066677,39.1376427 17.8624649,38.4106702 16.0211,37.0362 C15.7867058,36.8395166 15.7352786,36.4991541 15.9011,36.242 L17.1075,34.2941 C17.2161206,34.1123179 17.4127413,34.0014953 17.6245,34.0027 C17.7595218,34.0027553 17.890773,34.0472437 17.998,34.1293 C19.3400046,35.1288852 20.9497285,35.7053386 22.6212,35.7849 C23.4832,35.7849 24.9287,35.6127 24.9287,34.459 C24.9287,33.6279 23.9316,33.2452 22.0969,32.879 L22.0589,32.879 C19.5726,32.399 16.1632,31.7403 16.1632,28.1141 C16.1632,25.7985 18.1032,23.3041 22.3732,23.3041 L22.3732,23.3123 C24.4308141,23.281321 26.4436318,23.9142715 28.1132,25.1173 C28.3419159,25.3100705 28.3960726,25.6407404 28.2408,25.8964 L27.1689,27.7319 C27.0597446,27.9179984 26.859746,28.0318859 26.644,28.0308 C26.4972542,28.0291526 26.3551082,27.9793699 26.2394,27.8891 C25.1326874,27.034851 23.7717203,26.5759378 22.3737,26.5856 C21.0485,26.5856 20.2245,27.0507 20.2245,27.7918 C20.2245,28.5329 21.1604,28.8632 22.898,29.2151 C25.4534,29.7096 28.952,30.3841 28.952,34.2042 C28.952,37.1792 26.3829,39.1042 22.4043,39.1042" id="Path"/>
            <path d="M45.817,23.8733 L42.8185,23.8733 C42.5704015,23.8739065 42.3695993,24.0752008 42.3696,24.3233 L42.3696,24.6379 C42.3704819,24.81543 42.2667228,24.9768252 42.104846,25.0497195 C41.9429692,25.1226138 41.7533463,25.0933307 41.621,24.975 C40.5894458,24.009408 39.2283612,23.473751 37.8154,23.4772825 C34.0911,23.4772825 31.3121,26.0762 31.3121,30.9685 C31.3121,35.8608 34.1211,38.4605 37.8154,38.4605 C39.2285965,38.4644999 40.5899327,37.9284577 41.621,36.962 C41.7520853,36.8440765 41.9400944,36.8138791 42.1015147,36.8848212 C42.262935,36.9557634 42.3678277,37.1146873 42.3696,37.291 L42.3696,37.6589 C42.3696,40.5807 40.1672,41.4049 38.3018,41.4049 C36.7560244,41.4848179 35.2392437,40.9637683 34.0689,39.9508 C34.0479589,39.9325629 34.025735,39.9158532 34.0024,39.9008 C33.7937816,39.7736289 33.5215795,39.8395088 33.3942,40.048 L32.1434,42.064 C32.0211079,42.2551279 32.0635635,42.5078294 32.2416,42.6485 C33.9526552,44.011199 36.1017739,44.7034436 38.2865,44.5956 C41.928,44.5956 46.258,43.2245 46.258,37.6056 L46.258,24.3156 C46.258,24.0718183 46.0607812,23.8739965 45.817,23.8735 M42.3470277,33.2235 C42.3479533,33.3210189 42.316274,33.4160569 42.257,33.4935 C41.4532127,34.4591933 40.2694108,35.0278839 39.0132,35.0518 C36.7665,35.0518 35.2678,33.5528 35.2678,30.9911 C35.2678,28.4294 36.8178,26.9305 39.0132,26.9305 C40.2717898,26.94432 41.4596072,27.5149396 42.257,28.4888 C42.3164053,28.5661735 42.3481001,28.6612581 42.3470277,28.7588 L42.3470277,33.2235 Z" id="Shape"/>
        </g>
    </g>
</svg>
